#N canvas 1169 -784 450 300 12;
#X floatatom 75 32 5 0 0 0 - - - 0;
#X obj 75 63 + 100;
#X obj 75 87 dbtorms;
#X floatatom 75 111 5 0 0 0 - - - 0;
#X obj 75 134 sig~;
#X obj 2 177 *~;
#X obj 75 2 inlet;
#X obj 3 1 inlet~;
#X obj 3 213 outlet~;
#X connect 0 0 1 0;
#X connect 1 0 2 0;
#X connect 2 0 3 0;
#X connect 3 0 4 0;
#X connect 4 0 5 1;
#X connect 5 0 8 0;
#X connect 6 0 0 0;
#X connect 7 0 5 0;
