#N canvas 26 26 450 300 12;
#X obj 217 68 env~;
#X obj 217 99 dbtorms;
#X floatatom 217 123 5 0 0 0 - - - 0;
#X obj 217 146 sig~;
#X obj 187 174 *~;
#X obj 190 222 outlet~;
#X obj 220 28 inlet~;
#X obj 136 132 inlet~;
#X connect 0 0 1 0;
#X connect 1 0 2 0;
#X connect 2 0 3 0;
#X connect 3 0 4 1;
#X connect 4 0 5 0;
#X connect 6 0 0 0;
#X connect 7 0 4 0;
