#N canvas 104 104 1366 685 12;
#X msg 35 168 start;
#X obj 123 117 random 11;
#X obj 123 144 + 1;
#X floatatom 123 169 5 0 0 0 - - - 0;
#X msg 123 195 open audio_tactile_source_files/\$1.wav;
#X text 205 119 adapt to number of files;
#X obj 85 11 inlet;
#X obj 29 299 outlet;
#X obj 121 297 outlet;
#X obj 31 116 pipe 2;
#X msg 413 122 stop;
#X obj 88 40 t b b b;
#X obj 415 306 outlet;
#X text 460 123 stop sound before starting it;
#X connect 0 0 7 0;
#X connect 1 0 2 0;
#X connect 2 0 3 0;
#X connect 3 0 4 0;
#X connect 4 0 8 0;
#X connect 6 0 11 0;
#X connect 9 0 0 0;
#X connect 10 0 12 0;
#X connect 11 0 9 0;
#X connect 11 1 1 0;
#X connect 11 2 10 0;
