#N canvas 1273 -1440 1278 1348 12;
#X obj 133 60 inlet;
#X obj 292 62 inlet;
#X text 145 39 x;
#X text 304 40 y;
#X obj 90 105 moses 0;
#X obj 137 149 moses 3.8;
#X obj 247 107 moses 0;
#X obj 294 151 moses 14.4;
#X floatatom 136 224 5 0 0 0 - - - 0;
#X floatatom 294 227 5 0 0 0 - - - 0;
#X msg 246 141 0;
#X msg 88 141 0;
#X msg 366 190 14.4;
#X msg 196 184 3.8;
#X obj 452 286 moses 4.8;
#X obj 565 314 moses 9.6;
#X text 416 367 t_1 & t_2;
#X text 503 417 t_3 & t_4;
#X text 624 449 t_5 & t_6;
#X msg 397 386 0 1 2;
#X msg 495 439 2 3 4;
#X msg 613 471 4 5 6;
#X listbox 441 558 20 0 0 0 - - - 0;
#X listbox 595 557 20 0 0 0 - - - 0;
#X obj 436 320 t b b;
#X obj 547 352 t b b;
#X obj 625 354 t b b;
#X obj 161 331 pack f f;
#X text 69 333 coordinates;
#X obj 372 757 sub_areas;
#X text 365 530 list of actuators;
#X obj 549 754 sub_areas;
#X obj 598 595 t b l;
#X obj 443 602 t b l;
#X obj 342 870 < 0;
#X obj 348 1094 spigot;
#X obj 387 1057 tgl 19 0 empty empty empty 0 -10 0 12 #fcfcfc #000000 #000000 0 1;
#X obj 454 869 < 0;
#X obj 352 908 ||;
#X obj 383 943 ||;
#X obj 399 870 < 0;
#X obj 361 830 unpack f f f;
#X obj 287 797 t l l;
#X obj 295 1054 list store;
#X obj 380 1008 t b f;
#X obj 607 874 < 0;
#X obj 613 1098 spigot;
#X obj 652 1061 tgl 19 0 empty empty empty 0 -10 0 12 #fcfcfc #000000 #000000 0 1;
#X obj 719 873 < 0;
#X obj 617 912 ||;
#X obj 648 947 ||;
#X obj 664 874 < 0;
#X obj 626 834 unpack f f f;
#X obj 552 801 t l l;
#X obj 560 1058 list store;
#X obj 645 1012 t b f;
#X listbox 505 1237 20 0 0 0 - - - 0;
#X obj 40 685 list store;
#X obj 348 1124 t b l;
#X listbox 345 1238 20 0 0 0 - - - 0;
#X obj 613 1129 t b l;
#X obj 948 704 list store;
#X text 343 1213 actuators on;
#X text 497 1214 intensities;
#X obj 428 1301 outlet;
#X obj 493 1300 outlet;
#N canvas 0 50 450 250 (subpatch) 0;
#X array actuators_x 8 float 3;
#A 0 0 3.8 0 3.8 0 3.8 0 3.8;
#X coords 0 0 8 3.8 200 140 1 0 0;
#X restore 642 -19 graph;
#N canvas 0 50 450 250 (subpatch) 0;
#X array actuators_y 8 float 3;
#A 0 0 0 4.8 4.8 9.6 9.6 14.4 14.4;
#X coords 0 0 8 14.5 200 140 1 0 0;
#X restore 852 -20 graph;
#X obj 836 -120 bng 19 250 50 0 empty empty empty 0 -10 0 12 #fcfcfc #000000 #000000;
#X msg 924 -76 \; actuators_y 0 0 0 4.8 4.8 9.6 9.6 14.4 14.4;
#X msg 617 -77 \; actuators_x 0 0 3.8 0 3.8 0 3.8 0 3.8;
#X text 947 -120 Note: first value is for array's head (not pos!);
#X obj 835 -154 loadbang;
#X obj 1013 546;
#X obj 55 946 print l1;
#X obj 965 983 print l2;
#X obj 647 977 != 1;
#X obj 379 976 != 1;
#X msg 448 389 1 3 2;
#X msg 546 440 3 5 4;
#X msg 663 472 5 7 6;
#X text 699 391 Note: odd triangles have the order of actuators scrambled \, to get positive values when calculating area;
#X obj 161 372 t l l;
#X connect 0 0 4 0;
#X connect 1 0 6 0;
#X connect 4 0 11 0;
#X connect 4 1 5 0;
#X connect 5 0 8 0;
#X connect 5 1 13 0;
#X connect 6 0 10 0;
#X connect 6 1 7 0;
#X connect 7 0 9 0;
#X connect 7 1 12 0;
#X connect 8 0 27 0;
#X connect 9 0 14 0;
#X connect 9 0 27 1;
#X connect 10 0 9 0;
#X connect 11 0 8 0;
#X connect 12 0 9 0;
#X connect 13 0 8 0;
#X connect 14 0 24 0;
#X connect 14 1 15 0;
#X connect 15 0 25 0;
#X connect 15 1 26 0;
#X connect 19 0 22 0;
#X connect 20 0 22 0;
#X connect 21 0 22 0;
#X connect 22 0 33 0;
#X connect 22 0 57 1;
#X connect 23 0 32 0;
#X connect 23 0 61 1;
#X connect 24 0 19 0;
#X connect 24 1 78 0;
#X connect 25 0 20 0;
#X connect 25 1 79 0;
#X connect 26 0 21 0;
#X connect 26 1 80 0;
#X connect 27 0 82 0;
#X connect 29 0 42 0;
#X connect 31 0 53 0;
#X connect 32 1 31 1;
#X connect 33 1 29 1;
#X connect 34 0 38 0;
#X connect 35 0 58 0;
#X connect 36 0 35 1;
#X connect 37 0 39 1;
#X connect 38 0 39 0;
#X connect 39 0 77 0;
#X connect 40 0 38 1;
#X connect 41 0 34 0;
#X connect 41 1 40 0;
#X connect 41 2 37 0;
#X connect 42 0 41 0;
#X connect 42 1 43 1;
#X connect 42 1 74 0;
#X connect 43 0 35 0;
#X connect 44 0 43 0;
#X connect 44 1 36 0;
#X connect 45 0 49 0;
#X connect 46 0 60 0;
#X connect 47 0 46 1;
#X connect 48 0 50 1;
#X connect 49 0 50 0;
#X connect 50 0 76 0;
#X connect 51 0 49 1;
#X connect 52 0 45 0;
#X connect 52 1 51 0;
#X connect 52 2 48 0;
#X connect 53 0 52 0;
#X connect 53 1 54 1;
#X connect 53 1 75 0;
#X connect 54 0 46 0;
#X connect 55 0 54 0;
#X connect 55 1 47 0;
#X connect 56 0 65 0;
#X connect 57 0 59 0;
#X connect 58 0 57 0;
#X connect 58 1 56 0;
#X connect 59 0 64 0;
#X connect 60 0 61 0;
#X connect 60 1 56 0;
#X connect 61 0 59 0;
#X connect 68 0 70 0;
#X connect 68 0 69 0;
#X connect 72 0 68 0;
#X connect 76 0 55 0;
#X connect 77 0 44 0;
#X connect 78 0 23 0;
#X connect 79 0 23 0;
#X connect 80 0 23 0;
#X connect 82 0 29 0;
#X connect 82 1 31 0;
