#N canvas 1273 -1440 1278 1348 12;
#X obj 412 83 inlet;
#X text 374 59 list of actuators;
#X obj 414 120 unpack f f f`;
#X obj 237 88 inlet;
#X obj 163 230 unpack f f;
#X text 239 63 coordinates;
#X text 162 87 HOT INLET;
#X obj 365 227 tabread actuators_x;
#X obj 507 228 tabread actuators_y;
#X obj 664 229 tabread actuators_x;
#X obj 806 230 tabread actuators_y;
#X obj 962 226 tabread actuators_x;
#X obj 1104 227 tabread actuators_y;
#X obj 333 354 -;
#X obj 377 354 -;
#X obj 356 414 pack f f;
#X obj 669 351 -;
#X obj 713 351 -;
#X obj 692 411 pack f f;
#X obj 991 344 -;
#X obj 1035 344 -;
#X obj 1014 404 pack f f;
#X obj 681 595 triangle_area;
#X obj 966 597 triangle_area;
#X obj 382 594 triangle_area;
#X obj 639 746 pack f f f;
#X obj 640 790 outlet;
#X obj 389 162 t f f;
#X obj 533 163 t f f;
#X obj 697 162 t f f;
#X obj 171 283 t f f f;
#X obj 333 378 * -1;
#X obj 377 378 * -1;
#X obj 669 375 * -1;
#X obj 713 375 * -1;
#X obj 991 368 * -1;
#X obj 1035 368 * -1;
#X obj 1008 550 list store;
#X obj 355 445 t l b l;
#X text 1255 202 arrays are defined in calc_intensities;
#X obj 643 682 float;
#X obj 382 625 t b f;
#X text 724 744 order matters;
#X connect 0 0 2 0;
#X connect 2 0 27 0;
#X connect 2 1 28 0;
#X connect 2 2 29 0;
#X connect 3 0 4 0;
#X connect 4 0 30 0;
#X connect 4 1 14 0;
#X connect 4 1 17 0;
#X connect 4 1 20 0;
#X connect 7 0 13 1;
#X connect 8 0 14 1;
#X connect 9 0 16 1;
#X connect 10 0 17 1;
#X connect 11 0 19 1;
#X connect 12 0 20 1;
#X connect 13 0 31 0;
#X connect 14 0 32 0;
#X connect 15 0 38 0;
#X connect 16 0 33 0;
#X connect 17 0 34 0;
#X connect 18 0 22 0;
#X connect 18 0 24 1;
#X connect 19 0 35 0;
#X connect 20 0 36 0;
#X connect 21 0 22 1;
#X connect 21 0 37 1;
#X connect 22 0 40 1;
#X connect 23 0 25 1;
#X connect 24 0 41 0;
#X connect 25 0 26 0;
#X connect 27 0 7 0;
#X connect 27 1 8 0;
#X connect 28 0 9 0;
#X connect 28 1 10 0;
#X connect 29 0 11 0;
#X connect 29 1 12 0;
#X connect 30 0 13 0;
#X connect 30 1 16 0;
#X connect 30 2 19 0;
#X connect 31 0 15 0;
#X connect 32 0 15 1;
#X connect 33 0 18 0;
#X connect 34 0 18 1;
#X connect 35 0 21 0;
#X connect 36 0 21 1;
#X connect 37 0 23 0;
#X connect 38 0 24 0;
#X connect 38 1 37 0;
#X connect 38 2 23 1;
#X connect 40 0 25 0;
#X connect 41 0 40 0;
#X connect 41 1 25 2;
