#N canvas 1240 -861 450 389 12;
#X obj 77 86 inlet;
#X obj 142 85 inlet;
#X text 43 63 2D-vector_1;
#X text 132 66 2D-vector_2;
#X obj 64 139 unpack f f;
#X obj 161 141 unpack f f;
#X text -1 85 HOT INLET;
#X obj 82 209 *;
#X obj 186 214 *;
#X obj 133 259 -;
#X obj 135 307 / 2;
#X obj 133 350 outlet;
#X connect 0 0 4 0;
#X connect 1 0 5 0;
#X connect 4 0 7 0;
#X connect 4 1 8 0;
#X connect 5 0 8 1;
#X connect 5 1 7 1;
#X connect 7 0 9 0;
#X connect 8 0 9 1;
#X connect 9 0 10 0;
#X connect 10 0 11 0;
