#N canvas 777 -1312 2560 1357 12;
#X obj 572 9 bng 45 250 50 0 empty empty empty 17 7 0 10 #faff00 #000000 #000000;
#X obj 63 235 oscformat;
#X obj 18 -21 loadbang;
#X msg 42 93 set AudioTactileRenderer state;
#X obj 10 411 netsend -u -b;
#X msg 14 356 connect localhost 9000;
#X msg 748 53 disconnect;
#X obj 747 8 bng 15 250 50 0 empty empty empty 17 7 0 10 #fcfcfc #000000 #000000;
#X obj 224 297 oscparse;
#X obj 224 329 print parse-output-send;
#X obj 481 110 pack s;
#X obj 492 46 bng 15 250 50 0 empty empty empty 17 7 0 10 #fcfcfc #000000 #000000;
#X msg 491 81 down;
#X obj 63 296 list prepend send;
#X obj 63 321 list trim;
#X obj 573 192 pack s s f;
#X msg 551 104 left;
#X obj 573 68 t b b b;
#X msg 63 158 format ssf;
#X obj 595 131 symbol;
#X floatatom 653 114 5 0 0 0 - - - 0;
#X text 698 113 force as a percentage;
#X obj 20 9 t b b b;
#X msg 596 102 thumb;
#X obj 964 3 bng 45 250 50 0 empty empty empty 17 7 0 10 #faff00 #000000 #000000;
#X obj 965 186 pack s s f;
#X msg 943 98 left;
#X obj 965 62 t b b b;
#X obj 987 125 symbol;
#X floatatom 1045 108 5 0 0 0 - - - 0;
#X obj 1137 7 bng 45 250 50 0 empty empty empty 17 7 0 10 #faff00 #000000 #000000;
#X obj 1138 190 pack s s f;
#X msg 1116 102 left;
#X obj 1138 66 t b b b;
#X obj 1160 129 symbol;
#X floatatom 1218 112 5 0 0 0 - - - 0;
#X obj 1304 15 bng 45 250 50 0 empty empty empty 17 7 0 10 #faff00 #000000 #000000;
#X obj 1305 198 pack s s f;
#X msg 1283 110 left;
#X obj 1305 74 t b b b;
#X obj 1327 137 symbol;
#X floatatom 1385 120 5 0 0 0 - - - 0;
#X obj 1484 21 bng 45 250 50 0 empty empty empty 17 7 0 10 #faff00 #000000 #000000;
#X obj 1485 204 pack s s f;
#X msg 1463 116 left;
#X obj 1485 80 t b b b;
#X obj 1507 143 symbol;
#X floatatom 1565 126 5 0 0 0 - - - 0;
#X msg 988 96 index;
#X msg 1161 100 middle;
#X msg 1328 108 ring;
#X msg 1508 114 pinky;
#X obj 1692 27 bng 45 250 50 0 empty empty empty 17 7 0 10 #faff00 #000000 #000000;
#X obj 1693 210 pack s s f;
#X msg 1671 122 left;
#X obj 1693 86 t b b b;
#X obj 1715 149 symbol;
#X floatatom 1773 132 5 0 0 0 - - - 0;
#X msg 1716 120 palm;
#X obj 1140 -137 bng 45 250 50 0 empty empty empty 17 7 0 10 #faff00 #000000 #000000;
#X obj 1128 -101 t b b b b b b;
#X text 1399 -115 general force;
#X floatatom 1352 -109 5 0 0 0 - - - 0;
#X obj 1196 -196 bng 19 250 50 0 empty empty empty 0 -10 0 12 #fcfcfc #000000 #000000;
#X msg 1240 -195 stop;
#X obj 1223 -160 metro 1000;
#X obj 1351 -159 loadbang;
#X msg 1353 -133 120;
#X connect 0 0 17 0;
#X connect 1 0 8 0;
#X connect 1 0 13 0;
#X connect 2 0 22 0;
#X connect 3 0 1 0;
#X connect 5 0 4 0;
#X connect 6 0 4 0;
#X connect 7 0 6 0;
#X connect 8 0 9 0;
#X connect 10 0 1 0;
#X connect 11 0 12 0;
#X connect 12 0 10 0;
#X connect 13 0 14 0;
#X connect 14 0 4 0;
#X connect 15 0 1 0;
#X connect 16 0 15 0;
#X connect 17 0 16 0;
#X connect 17 1 23 0;
#X connect 17 2 20 0;
#X connect 18 0 1 0;
#X connect 19 0 15 1;
#X connect 20 0 15 2;
#X connect 22 0 5 0;
#X connect 22 1 3 0;
#X connect 22 2 18 0;
#X connect 23 0 19 0;
#X connect 24 0 27 0;
#X connect 25 0 1 0;
#X connect 26 0 25 0;
#X connect 27 0 26 0;
#X connect 27 1 48 0;
#X connect 27 2 29 0;
#X connect 28 0 25 1;
#X connect 29 0 25 2;
#X connect 30 0 33 0;
#X connect 31 0 1 0;
#X connect 32 0 31 0;
#X connect 33 0 32 0;
#X connect 33 1 49 0;
#X connect 33 2 35 0;
#X connect 34 0 31 1;
#X connect 35 0 31 2;
#X connect 36 0 39 0;
#X connect 37 0 1 0;
#X connect 38 0 37 0;
#X connect 39 0 38 0;
#X connect 39 1 50 0;
#X connect 39 2 41 0;
#X connect 40 0 37 1;
#X connect 41 0 37 2;
#X connect 42 0 45 0;
#X connect 43 0 1 0;
#X connect 44 0 43 0;
#X connect 45 0 44 0;
#X connect 45 1 51 0;
#X connect 45 2 47 0;
#X connect 46 0 43 1;
#X connect 47 0 43 2;
#X connect 48 0 28 0;
#X connect 49 0 34 0;
#X connect 50 0 40 0;
#X connect 51 0 46 0;
#X connect 52 0 55 0;
#X connect 53 0 1 0;
#X connect 54 0 53 0;
#X connect 55 0 54 0;
#X connect 55 1 58 0;
#X connect 55 2 57 0;
#X connect 56 0 53 1;
#X connect 57 0 53 2;
#X connect 58 0 56 0;
#X connect 59 0 60 0;
#X connect 60 0 0 0;
#X connect 60 1 24 0;
#X connect 60 2 30 0;
#X connect 60 3 36 0;
#X connect 60 4 42 0;
#X connect 60 5 52 0;
#X connect 62 0 20 0;
#X connect 62 0 29 0;
#X connect 62 0 35 0;
#X connect 62 0 41 0;
#X connect 62 0 47 0;
#X connect 62 0 57 0;
#X connect 63 0 65 0;
#X connect 64 0 65 0;
#X connect 65 0 59 0;
#X connect 66 0 67 0;
#X connect 67 0 62 0;
