#N canvas 4 -1395 2560 1357 12;
#X declare -path abstractions;
#X obj 214 13 loadbang;
#X obj 10 15 declare -path abstractions;
#X msg 220 102 \; pd dsp 1;
#X text 1383 806 adapt according to desired channel mapping if necessary;
#X obj 1196 624 apply_gain_db;
#X obj 1197 653 prc_audio_to_speaker;
#X obj 1734 641 apply_gain_db;
#X obj 1733 672 prc_tactile_to_exciter;
#X floatatom 1822 619 5 0 0 0 - - - 0;
#X floatatom 1284 597 5 0 0 0 - - - 0;
#X obj 1285 571 r initial_speaker_gain;
#X obj 1823 590 r initial_exciter_gain;
#X obj 528 152 s initial_speaker_gain;
#X obj 699 153 s initial_exciter_gain;
#X obj 1386 626 apply_gain_db;
#X floatatom 1476 604 5 0 0 0 - - - 0;
#X obj 1475 575 r initial_main_exciter_gain;
#X obj 1385 657 prc_tactile_to_main_exciter;
#X obj 872 153 s initial_main_exciter_gain;
#X obj 1449 781 dac~ 1 2 3 4 5 6 7 8;
#X msg 897 94 20;
#X msg 719 92 30;
#X obj 1276 191 r l_palm;
#X obj 1693 199 r l_thumb;
#X obj 2068 643 apply_gain_db;
#X obj 2067 674 prc_tactile_to_exciter;
#X floatatom 2156 621 5 0 0 0 - - - 0;
#X obj 2157 592 r initial_exciter_gain;
#X obj 2027 429 readsf~ 5;
#X obj 2326 643 apply_gain_db;
#X obj 2325 674 prc_tactile_to_exciter;
#X floatatom 2414 621 5 0 0 0 - - - 0;
#X obj 2415 592 r initial_exciter_gain;
#X obj 2285 429 readsf~ 5;
#X obj 2027 201 r l_index;
#X obj 2285 201 r l_middle;
#X obj 2583 643 apply_gain_db;
#X obj 2582 674 prc_tactile_to_exciter;
#X floatatom 2671 621 5 0 0 0 - - - 0;
#X obj 2672 592 r initial_exciter_gain;
#X obj 2542 429 readsf~ 5;
#X obj 2541 198 r l_ring;
#X obj 2838 644 apply_gain_db;
#X obj 2837 675 prc_tactile_to_exciter;
#X floatatom 2926 622 5 0 0 0 - - - 0;
#X obj 2927 593 r initial_exciter_gain;
#X obj 2797 430 readsf~ 5;
#X obj 2797 202 r l_pinky;
#X text 1112 127 Only LEFT hand implemented!;
#X obj 530 117 *;
#X obj 698 124 *;
#X obj 874 124 *;
#X obj 674 -15 r sound_force;
#X obj 283 10 bng 19 250 50 0 empty empty empty 0 -10 0 12 #fcfcfc #000000 #000000;
#X obj 1707 455 readsf~ 5;
#X obj 1265 411 readsf~ 5 262144;
#X obj 1274 290 play_sound;
#X obj 1696 293 play_sound;
#X obj 2021 304 play_sound;
#X obj 2281 305 play_sound;
#X obj 2535 299 play_sound;
#X obj 2800 292 play_sound;
#X obj 1399 489 envelop_signal;
#X obj 1342 461 osc~ 240;
#X obj 1685 532 envelop_signal;
#X obj 1628 504 osc~ 200;
#X obj 2014 519 envelop_signal;
#X obj 1957 491 osc~ 200;
#X obj 2316 515 envelop_signal;
#X obj 2259 487 osc~ 200;
#X obj 2592 514 envelop_signal;
#X obj 2535 486 osc~ 200;
#X obj 2862 521 envelop_signal;
#X obj 2805 486 osc~ 200;
#X obj 223 66 t b;
#X obj 672 15 t f b f b f b;
#X obj 155 212 notein;
#X obj 331 605 route 1;
#X obj 409 648 route 2;
#X obj 486 686 route 3;
#X obj 570 731 route 4;
#X obj 641 767 route 5;
#X obj 713 806 route 6;
#X obj 14 339 s sound_force;
#X obj 122 407 print notein;
#X obj 170 259 / 100;
#X obj 130 335 pack 0 0 0;
#X obj 321 382 pack f f;
#X text 214 209 finger \, force \, hand;
#X obj 464 516 route 1;
#X obj 542 559 route 2;
#X obj 619 597 route 3;
#X obj 703 642 route 4;
#X obj 774 678 route 5;
#X obj 846 717 route 6;
#X obj 463 591 s r_thumb;
#X obj 614 661 s r_middle;
#X obj 701 705 s r_ring;
#X obj 772 737 s r_pinky;
#X obj 845 766 s r_palm;
#X text 530 475 right hand;
#X text 383 433 left hand;
#X obj 330 680 s l_thumb;
#X obj 481 750 s l_middle;
#X obj 568 794 s l_ring;
#X obj 639 826 s l_pinky;
#X obj 712 855 s l_palm;
#X obj 323 429 route 2;
#X msg 464 472 route 1;
#X obj 119 550 print route_O/P;
#X obj 407 823 s l_index;
#X msg 540 617 s r_index;
#X obj 95 498 print pack_O/P;
#X obj 77 451 print finger_O/P;
#X obj 304 329 float;
#X obj 353 331 float;
#X obj 335 265 t b b f;
#X msg 546 88 -2;
#X obj 1433 444 bp~ 210 5;
#X obj 1771 490 bp~ 210 5;
#X obj 2117 477 bp~ 210 5;
#X obj 2401 473 bp~ 210 5;
#X obj 2609 466 bp~ 210 5;
#X obj 2886 461 bp~ 210 5;
#X obj 1256 888 print;
#X obj 1247 853 env~ 15384 8192;
#X obj 1817 35 r set_freq;
#X obj 19 381 s set_freq;
#X msg 1818 79 170;
#X text 1362 852 debugging;
#X connect 0 0 74 0;
#X connect 4 0 5 0;
#X connect 5 0 19 0;
#X connect 6 0 7 0;
#X connect 7 0 19 2;
#X connect 8 0 6 1;
#X connect 9 0 4 1;
#X connect 10 0 9 0;
#X connect 11 0 8 0;
#X connect 14 0 17 0;
#X connect 15 0 14 1;
#X connect 16 0 15 0;
#X connect 17 0 19 1;
#X connect 20 0 51 1;
#X connect 21 0 50 1;
#X connect 22 0 56 0;
#X connect 23 0 57 0;
#X connect 24 0 25 0;
#X connect 25 0 19 3;
#X connect 25 0 19 4;
#X connect 26 0 24 1;
#X connect 27 0 26 0;
#X connect 28 3 120 0;
#X connect 29 0 30 0;
#X connect 30 0 19 5;
#X connect 31 0 29 1;
#X connect 32 0 31 0;
#X connect 33 3 121 0;
#X connect 34 0 58 0;
#X connect 35 0 59 0;
#X connect 36 0 37 0;
#X connect 37 0 19 6;
#X connect 38 0 36 1;
#X connect 39 0 38 0;
#X connect 40 3 122 0;
#X connect 41 0 60 0;
#X connect 42 0 43 0;
#X connect 43 0 19 7;
#X connect 44 0 42 1;
#X connect 45 0 44 0;
#X connect 46 3 123 0;
#X connect 47 0 61 0;
#X connect 49 0 12 0;
#X connect 50 0 13 0;
#X connect 51 0 18 0;
#X connect 52 0 75 0;
#X connect 53 0 74 0;
#X connect 54 3 119 0;
#X connect 55 2 4 0;
#X connect 55 3 118 0;
#X connect 56 0 55 0;
#X connect 56 1 55 0;
#X connect 56 2 55 0;
#X connect 57 0 54 0;
#X connect 57 1 54 0;
#X connect 57 2 54 0;
#X connect 58 0 28 0;
#X connect 58 1 28 0;
#X connect 58 2 28 0;
#X connect 59 0 33 0;
#X connect 59 1 33 0;
#X connect 59 2 33 0;
#X connect 60 0 40 0;
#X connect 60 1 40 0;
#X connect 60 2 40 0;
#X connect 61 0 46 0;
#X connect 61 1 46 0;
#X connect 61 2 46 0;
#X connect 62 0 14 0;
#X connect 63 0 62 0;
#X connect 64 0 6 0;
#X connect 65 0 64 0;
#X connect 66 0 24 0;
#X connect 67 0 66 0;
#X connect 68 0 29 0;
#X connect 69 0 68 0;
#X connect 70 0 36 0;
#X connect 71 0 70 0;
#X connect 72 0 42 0;
#X connect 73 0 72 0;
#X connect 74 0 2 0;
#X connect 75 0 49 0;
#X connect 75 1 117 0;
#X connect 75 2 50 0;
#X connect 75 3 21 0;
#X connect 75 4 51 0;
#X connect 75 5 20 0;
#X connect 76 0 86 0;
#X connect 76 0 113 0;
#X connect 76 0 116 0;
#X connect 76 1 85 0;
#X connect 76 2 86 2;
#X connect 76 2 115 1;
#X connect 77 0 102 0;
#X connect 77 1 78 0;
#X connect 78 0 110 0;
#X connect 78 1 79 0;
#X connect 79 0 103 0;
#X connect 79 1 80 0;
#X connect 80 0 104 0;
#X connect 80 1 81 0;
#X connect 81 0 105 0;
#X connect 81 1 82 0;
#X connect 82 0 106 0;
#X connect 85 0 86 1;
#X connect 85 0 83 0;
#X connect 85 0 127 0;
#X connect 86 0 84 0;
#X connect 87 0 107 0;
#X connect 87 0 112 0;
#X connect 89 0 95 0;
#X connect 89 1 90 0;
#X connect 90 0 111 0;
#X connect 90 1 91 0;
#X connect 91 0 96 0;
#X connect 91 1 92 0;
#X connect 92 0 97 0;
#X connect 92 1 93 0;
#X connect 93 0 98 0;
#X connect 93 1 94 0;
#X connect 94 0 99 0;
#X connect 107 0 77 0;
#X connect 107 0 109 0;
#X connect 107 1 108 0;
#X connect 108 0 89 0;
#X connect 114 0 87 1;
#X connect 115 0 87 0;
#X connect 116 0 115 0;
#X connect 116 1 114 0;
#X connect 116 2 114 1;
#X connect 117 0 49 1;
#X connect 118 0 62 1;
#X connect 119 0 64 1;
#X connect 120 0 66 1;
#X connect 121 0 68 1;
#X connect 122 0 70 1;
#X connect 123 0 72 1;
#X connect 126 0 128 0;
#X connect 128 0 63 0;
#X connect 128 0 65 0;
#X connect 128 0 67 0;
#X connect 128 0 69 0;
#X connect 128 0 71 0;
#X connect 128 0 73 0;
