#N canvas 834 -1346 1306 1016 12;
#X declare -path abstractions;
#X obj 214 13 loadbang;
#X obj 13 268 oscparse;
#X obj 36 302 print parse-output-receive;
#X obj 13 237 netreceive -u -b;
#X obj 13 330 list trim;
#X obj 13 359 route AudioTactileRenderer;
#X obj 13 390 route state;
#X obj 10 15 declare -path abstractions;
#X msg 13 204 listen 9000;
#X text 217 361 adapt according to desired osc message if necessary;
#X text 102 392 adapt according to desired osc message if necessary;
#X text 104 204 adapt to desired port if necessary;
#X msg 17 111 \; pd dsp 1;
#X obj 179 158 s initial_speaker_gain;
#X obj 350 159 s initial_exciter_gain;
#X obj 523 159 s initial_main_exciter_gain;
#X msg 523 129 20;
#X msg 350 129 30;
#X msg 180 123 -8;
#X obj 329 951 noteout;
#X msg 274 643 1;
#X msg 348 673 2;
#X msg 423 707 3;
#X msg 505 739 4;
#X msg 571 765 5;
#X msg 644 798 6;
#X obj 406 505 unpack symbol symbol float;
#X obj 286 8 bng 19 250 50 0 empty empty empty 0 -10 0 12 #fcfcfc #000000 #000000;
#X obj 214 41 t b b b b b;
#X text 392 955 Finger \, Force \, Hand;
#X msg 20 671 2;
#X msg 84 702 1;
#X floatatom 44 750 5 0 0 0 - - - 0;
#X floatatom 342 767 5 0 0 0 - - - 0;
#X obj 44 435 t a a a;
#X obj 203 504 unpack symbol symbol float;
#X obj 7 502 unpack symbol symbol float;
#X obj 14 610 select left;
#X obj 99 659 select right;
#X obj 274 605 select thumb;
#X obj 348 636 select index;
#X obj 422 666 select middle;
#X obj 503 696 select ring;
#X obj 570 726 select pinky;
#X obj 644 756 select palm;
#X obj 1016 897 noteout;
#X floatatom 974 858 5 0 0 0 - - - 0;
#X floatatom 1024 854 5 0 0 0 - - - 0;
#X floatatom 1073 855 5 0 0 0 - - - 0;
#X obj 1028 768 bng 19 250 50 0 empty empty empty 0 -10 0 12 #fcfcfc #000000 #000000;
#X text 1059 769 testing;
#X connect 0 0 28 0;
#X connect 1 0 2 0;
#X connect 1 0 4 0;
#X connect 3 0 1 0;
#X connect 4 0 5 0;
#X connect 5 0 6 0;
#X connect 6 0 34 0;
#X connect 8 0 3 0;
#X connect 16 0 15 0;
#X connect 17 0 14 0;
#X connect 18 0 13 0;
#X connect 20 0 33 0;
#X connect 21 0 33 0;
#X connect 22 0 33 0;
#X connect 23 0 33 0;
#X connect 24 0 33 0;
#X connect 25 0 33 0;
#X connect 26 2 19 1;
#X connect 27 0 28 0;
#X connect 28 0 12 0;
#X connect 28 1 8 0;
#X connect 28 2 18 0;
#X connect 28 3 17 0;
#X connect 28 4 16 0;
#X connect 30 0 32 0;
#X connect 31 0 32 0;
#X connect 32 0 19 2;
#X connect 33 0 19 0;
#X connect 34 0 36 0;
#X connect 34 1 35 0;
#X connect 34 2 26 0;
#X connect 35 0 37 0;
#X connect 36 1 39 0;
#X connect 37 0 30 0;
#X connect 37 1 38 0;
#X connect 38 0 31 0;
#X connect 39 0 20 0;
#X connect 39 1 40 0;
#X connect 40 0 21 0;
#X connect 40 1 41 0;
#X connect 41 0 22 0;
#X connect 41 1 42 0;
#X connect 42 0 23 0;
#X connect 42 1 43 0;
#X connect 43 0 24 0;
#X connect 43 1 44 0;
#X connect 44 0 25 0;
#X connect 46 0 45 0;
#X connect 47 0 45 1;
#X connect 48 0 45 2;
#X connect 49 0 46 0;
#X connect 49 0 47 0;
#X connect 49 0 48 0;
