#N canvas 1504 -781 947 667 12;
#X declare -path abstractions;
#X obj 214 13 loadbang;
#X obj 10 15 declare -path abstractions;
#X msg 220 102 \; pd dsp 1;
#X text 1383 806 adapt according to desired channel mapping if necessary;
#X obj 1196 624 apply_gain_db;
#X obj 1197 653 prc_audio_to_speaker;
#X obj 1734 641 apply_gain_db;
#X obj 1733 672 prc_tactile_to_exciter;
#X floatatom 1822 619 5 0 0 0 - - - 0;
#X floatatom 1284 597 5 0 0 0 - - - 0;
#X obj 1285 571 r initial_speaker_gain;
#X obj 1823 590 r initial_exciter_gain;
#X obj 520 125 s initial_speaker_gain;
#X obj 691 126 s initial_exciter_gain;
#X obj 1386 626 apply_gain_db;
#X floatatom 1476 604 5 0 0 0 - - - 0;
#X obj 1475 575 r initial_main_exciter_gain;
#X obj 1385 657 prc_tactile_to_main_exciter;
#X obj 864 126 s initial_main_exciter_gain;
#X obj 1449 781 dac~ 1 2 3 4 5 6 7 8;
#X msg 889 67 20;
#X msg 711 65 30;
#X msg 538 61 -8;
#X obj 1276 191 r l_palm;
#X obj 1693 199 r l_thumb;
#X obj 2068 643 apply_gain_db;
#X obj 2067 674 prc_tactile_to_exciter;
#X floatatom 2156 621 5 0 0 0 - - - 0;
#X obj 2157 592 r initial_exciter_gain;
#X obj 2027 429 readsf~ 5;
#X obj 2326 643 apply_gain_db;
#X obj 2325 674 prc_tactile_to_exciter;
#X floatatom 2414 621 5 0 0 0 - - - 0;
#X obj 2415 592 r initial_exciter_gain;
#X obj 2285 429 readsf~ 5;
#X obj 2027 201 r l_index;
#X obj 2285 201 r l_middle;
#X obj 2583 643 apply_gain_db;
#X obj 2582 674 prc_tactile_to_exciter;
#X floatatom 2671 621 5 0 0 0 - - - 0;
#X obj 2672 592 r initial_exciter_gain;
#X obj 2542 429 readsf~ 5;
#X obj 2541 198 r l_ring;
#X obj 2838 644 apply_gain_db;
#X obj 2837 675 prc_tactile_to_exciter;
#X floatatom 2926 622 5 0 0 0 - - - 0;
#X obj 2927 593 r initial_exciter_gain;
#X obj 2797 430 readsf~ 5;
#X obj 2797 202 r l_pinky;
#X obj 146 250 notein;
#X obj 344 375 route 1;
#X text 205 248 note \, channel;
#X obj 422 418 route 2;
#X obj 499 456 route 3;
#X obj 583 501 route 4;
#X obj 654 537 route 5;
#X obj 726 576 route 6;
#X text 1829 121 Only LEFT hand implemented!;
#X obj 343 450 s r_thumb;
#X obj 494 520 s r_middle;
#X text 421 373 1-12 channels \, beginning with right thumb;
#X obj 581 564 s r_ring;
#X obj 652 596 s r_pinky;
#X obj 794 660 s l_thumb;
#X obj 873 698 s l_index;
#X obj 958 742 s l_middle;
#X obj 1049 794 s l_ring;
#X obj 1155 838 s l_pinky;
#X obj 1246 873 s l_palm;
#X obj 725 625 s r_palm;
#X obj 14 339 s sound_force;
#X obj 522 90 *;
#X obj 690 97 *;
#X obj 866 97 *;
#X obj 685 6 r sound_force;
#X obj 122 407 print notein;
#X obj 283 10 bng 19 250 50 0 empty empty empty 0 -10 0 12 #fcfcfc #000000 #000000;
#X obj 133 303 / 100;
#X text 319 323 comment;
#X obj 796 611 route 9;
#X obj 875 646 route 10;
#X obj 958 696 route 11;
#X obj 1052 743 route 12;
#X obj 1151 784 route 13;
#X obj 1248 829 route 14;
#X obj 1707 455 readsf~ 5;
#X obj 1265 411 readsf~ 5 262144;
#X obj 1274 290 play_sound;
#X obj 1696 293 play_sound;
#X obj 2021 304 play_sound;
#X obj 2281 305 play_sound;
#X obj 2535 299 play_sound;
#X obj 2800 292 play_sound;
#X obj 1183 478 envelop_signal;
#X obj 1399 489 envelop_signal;
#X obj 1342 461 osc~ 240;
#X obj 1184 449 osc~ 235;
#X obj 1685 532 envelop_signal;
#X obj 1628 504 osc~ 200;
#X obj 2014 519 envelop_signal;
#X obj 1957 491 osc~ 200;
#X obj 2316 515 envelop_signal;
#X obj 2259 487 osc~ 200;
#X obj 2592 514 envelop_signal;
#X obj 2535 486 osc~ 200;
#X obj 2862 521 envelop_signal;
#X obj 2805 486 osc~ 200;
#X obj 130 335 pack 0 0 0;
#X obj 223 66 t b;
#X connect 0 0 108 0;
#X connect 4 0 5 0;
#X connect 5 0 19 0;
#X connect 6 0 7 0;
#X connect 7 0 19 2;
#X connect 8 0 6 1;
#X connect 9 0 4 1;
#X connect 10 0 9 0;
#X connect 11 0 8 0;
#X connect 14 0 17 0;
#X connect 15 0 14 1;
#X connect 16 0 15 0;
#X connect 17 0 19 1;
#X connect 20 0 73 1;
#X connect 21 0 72 1;
#X connect 22 0 71 1;
#X connect 23 0 87 0;
#X connect 24 0 88 0;
#X connect 25 0 26 0;
#X connect 26 0 19 3;
#X connect 26 0 19 4;
#X connect 27 0 25 1;
#X connect 28 0 27 0;
#X connect 29 3 99 1;
#X connect 30 0 31 0;
#X connect 31 0 19 5;
#X connect 32 0 30 1;
#X connect 33 0 32 0;
#X connect 34 3 101 1;
#X connect 35 0 89 0;
#X connect 36 0 90 0;
#X connect 37 0 38 0;
#X connect 38 0 19 6;
#X connect 39 0 37 1;
#X connect 40 0 39 0;
#X connect 41 3 103 1;
#X connect 42 0 91 0;
#X connect 43 0 44 0;
#X connect 44 0 19 7;
#X connect 45 0 43 1;
#X connect 46 0 45 0;
#X connect 47 3 105 1;
#X connect 48 0 92 0;
#X connect 49 0 77 0;
#X connect 49 1 107 1;
#X connect 49 2 107 2;
#X connect 49 2 50 0;
#X connect 50 0 58 0;
#X connect 50 1 52 0;
#X connect 52 1 53 0;
#X connect 53 0 59 0;
#X connect 53 1 54 0;
#X connect 54 0 61 0;
#X connect 54 1 55 0;
#X connect 55 0 62 0;
#X connect 55 1 56 0;
#X connect 56 0 69 0;
#X connect 56 1 79 0;
#X connect 71 0 12 0;
#X connect 72 0 13 0;
#X connect 73 0 18 0;
#X connect 74 0 71 0;
#X connect 74 0 72 0;
#X connect 74 0 73 0;
#X connect 74 0 22 0;
#X connect 74 0 21 0;
#X connect 74 0 20 0;
#X connect 76 0 108 0;
#X connect 77 0 70 0;
#X connect 77 0 107 0;
#X connect 79 0 63 0;
#X connect 79 1 80 0;
#X connect 80 0 64 0;
#X connect 80 1 81 0;
#X connect 81 0 65 0;
#X connect 81 1 82 0;
#X connect 82 0 66 0;
#X connect 82 1 83 0;
#X connect 83 0 67 0;
#X connect 83 1 84 0;
#X connect 84 0 68 0;
#X connect 85 3 97 1;
#X connect 86 2 93 1;
#X connect 86 3 94 1;
#X connect 87 0 86 0;
#X connect 87 1 86 0;
#X connect 88 0 85 0;
#X connect 88 1 85 0;
#X connect 89 0 29 0;
#X connect 89 1 29 0;
#X connect 90 0 34 0;
#X connect 90 1 34 0;
#X connect 91 0 41 0;
#X connect 91 1 41 0;
#X connect 92 0 47 0;
#X connect 92 1 47 0;
#X connect 93 0 4 0;
#X connect 94 0 14 0;
#X connect 95 0 94 0;
#X connect 96 0 93 0;
#X connect 97 0 6 0;
#X connect 98 0 97 0;
#X connect 99 0 25 0;
#X connect 100 0 99 0;
#X connect 101 0 30 0;
#X connect 102 0 101 0;
#X connect 103 0 37 0;
#X connect 104 0 103 0;
#X connect 105 0 43 0;
#X connect 106 0 105 0;
#X connect 107 0 75 0;
#X connect 108 0 2 0;
