#N canvas 541 -1255 2560 1357 12;
#X declare -path abstractions;
#X obj 214 13 loadbang;
#X obj 13 268 oscparse;
#X obj 36 302 print parse-output-receive;
#X obj 13 237 netreceive -u -b;
#X obj 13 330 list trim;
#X obj 13 359 route AudioTactileRenderer;
#X obj 13 390 route state;
#X obj 10 15 declare -path abstractions;
#X msg 13 204 listen 9000;
#X text 217 361 adapt according to desired osc message if necessary;
#X text 102 392 adapt according to desired osc message if necessary;
#X text 118 421 adapt according to desired osc message if necessary;
#X text 104 204 adapt to desired port if necessary;
#X msg 17 111 \; pd dsp 1;
#X obj 179 158 s initial_speaker_gain;
#X obj 350 159 s initial_exciter_gain;
#X obj 523 159 s initial_main_exciter_gain;
#X msg 523 129 20;
#X msg 350 129 30;
#X msg 180 123 -8;
#X obj 34 433 route left;
#X obj 161 470 route right;
#X obj 150 625 route thumb;
#X obj 224 656 route index;
#X obj 298 686 route middle;
#X obj 377 716 route ring;
#X obj 446 746 route pinky;
#X obj 520 776 route palm;
#X obj 161 502 route thumb;
#X obj 235 533 route index;
#X obj 309 563 route middle;
#X obj 390 593 route ring;
#X obj 457 623 route pinky;
#X obj 531 653 route palm;
#X obj 303 894 noteout;
#X msg 161 540 1;
#X msg 235 570 2;
#X msg 310 604 3;
#X msg 392 636 4;
#X msg 458 662 5;
#X msg 531 695 6;
#X obj 8 747 unpack symbol symbol float;
#X obj 286 8 bng 19 250 50 0 empty empty empty 0 -10 0 12 #fcfcfc #000000 #000000;
#X text 386 896 Only want Note (force) and Channel;
#X msg 150 673 9;
#X msg 222 695 10;
#X msg 295 728 11;
#X msg 376 754 12;
#X msg 446 783 13;
#X msg 523 816 14;
#X obj 214 41 t b b b b b;
#X connect 0 0 50 0;
#X connect 1 0 2 0;
#X connect 1 0 4 0;
#X connect 3 0 1 0;
#X connect 4 0 5 0;
#X connect 5 0 6 0;
#X connect 6 0 20 0;
#X connect 6 0 41 0;
#X connect 8 0 3 0;
#X connect 17 0 16 0;
#X connect 18 0 15 0;
#X connect 19 0 14 0;
#X connect 20 0 22 0;
#X connect 20 1 21 0;
#X connect 21 0 28 0;
#X connect 22 0 44 0;
#X connect 22 1 23 0;
#X connect 23 0 45 0;
#X connect 23 1 24 0;
#X connect 24 0 46 0;
#X connect 24 1 25 0;
#X connect 25 0 47 0;
#X connect 25 1 26 0;
#X connect 26 0 48 0;
#X connect 26 1 27 0;
#X connect 27 0 49 0;
#X connect 28 0 35 0;
#X connect 28 1 29 0;
#X connect 29 0 36 0;
#X connect 29 1 30 0;
#X connect 30 0 37 0;
#X connect 30 1 31 0;
#X connect 31 0 38 0;
#X connect 31 1 32 0;
#X connect 32 0 39 0;
#X connect 32 1 33 0;
#X connect 33 0 40 0;
#X connect 35 0 34 2;
#X connect 36 0 34 2;
#X connect 37 0 34 2;
#X connect 38 0 34 2;
#X connect 39 0 34 2;
#X connect 40 0 34 2;
#X connect 41 2 34 0;
#X connect 42 0 50 0;
#X connect 44 0 34 2;
#X connect 45 0 34 2;
#X connect 46 0 34 2;
#X connect 47 0 34 2;
#X connect 48 0 34 2;
#X connect 49 0 34 2;
#X connect 50 0 13 0;
#X connect 50 1 8 0;
#X connect 50 2 19 0;
#X connect 50 3 18 0;
#X connect 50 4 17 0;
