#N canvas 418 -1166 2560 1357 12;
#X declare -path abstractions;
#X obj 264 191 netreceive -b -u;
#X msg 263 152 listen 7000;
#X obj 263 237 oscparse;
#X msg 378 157 listen 0;
#X text 397 213 use trimming "/tactile/sleeve"?;
#X text 393 233 receive list of 3 or 4 elements?;
#X obj 335 548 unpack float float float float;
#X obj 434 1145 tabwrite intensity_window;
#N canvas 26 26 450 250 (subpatch) 0;
#X array intensity_window 2 float 3;
#A 0 1 1;
#X coords 0 1 2 -1 200 140 1;
#X restore 71 1190 graph;
#X obj 336 796 tabread intensity_window;
#X msg 334 766 0;
#X text 230 608 Output Flag;
#X obj 335 825 select 0;
#X obj 337 926 until;
#X obj 490 960 float;
#X text 413 958 intensity;
#X obj 564 1030 float 0;
#X obj 563 1058 + 1;
#X obj 1050 82 loadbang;
#X obj 1050 116 bng 19 250 50 0 empty empty empty 0 -10 0 12 #fcfcfc #000000 #000000;
#X obj 1049 149 s startup;
#X obj 611 962 r startup;
#X msg 609 989 0;
#X obj 489 995 t f f b;
#X obj 321 607 select 0;
#X obj 213 798 t b f;
#X msg 212 766 0;
#X text 232 897 fill table;
#X obj 391 897 t b;
#X obj 1159 182 s window_size;
#X msg 1264 148 resize \$1;
#X obj 1263 182 s intensity_window;
#X obj 324 897 float 1;
#X obj 162 843 r window_size;
#X obj 564 1089 mod 1;
#X obj 620 1062 r window_size;
#X obj 491 674 float;
#X obj 329 299 list length;
#X obj 421 671 float;
#X obj 315 420 list prepend;
#X obj 317 461 route 4;
#X obj 437 500 route 3;
#X obj 905 586 unpack float float float;
#X text 813 637 Output Flag;
#X obj 904 636 select 0;
#X obj 1088 720 float;
#X obj 1018 717 float;
#X floatatom 927 775 5 0 0 0 - - - 0;
#X floatatom 981 775 5 0 0 0 - - - 0;
#X obj 927 854 calc_intensities;
#X obj 555 754 moses 1;
#X msg 601 786 1;
#X obj 357 1221 r window_size;
#X obj 325 1252 float;
#X obj 325 1282 until;
#X text 308 1192 calculate average;
#X obj 325 1318 tabread intensity_window;
#X obj 1107 904 unpack f f f;
#X msg 1155 113 2;
#X obj 270 274 t a a;
#X obj 265 367 list store;
#X obj 342 328 t b a;
#X text 579 116 test input;
#X text 396 253 params: 1) receiving_flag 2) x_coordinate (0 to 3.8) 3) y_coordinate (0 to 14.4) 4) intensity (optional);
#X obj 1078 803 print intensities;
#X obj 732 854 print actuators;
#X obj 660 531 route 1;
#X obj 718 1367 tabread dac_outputs, f 11;
#N canvas 0 50 450 250 (subpatch) 0;
#X array dac_outputs 8 float 3;
#A 0 0.707107 0.707107 0 0 0 0 0 0;
#X coords 0 1 8 0 183 527 1 0 0;
#X restore 1616 1073 graph;
#X obj 927 891 unpack f f f;
#X text 1089 1169 tabwrite params: value \, index;
#X obj 1190 1075 float;
#X obj 1128 1076 float;
#X obj 1073 1075 float;
#X obj 1011 924 t b f;
#X obj 963 925 t b f;
#X obj 1147 938 / 9.12, f 4;
#X obj 1190 937 / 9.12, f 4;
#X obj 1107 937 / 9.12, f 4;
#X obj 1191 987 sqrt;
#X text 1225 959 (preprocessing): divide by triangle total area;
#X text 1225 979 (preprocessing): use power interpolation;
#X obj 1151 987 sqrt;
#X obj 1107 987 sqrt;
#X obj 936 1170 tabwrite dac_outputs;
#X obj 897 930 t b b f;
#X obj 900 1250 t b b b b b b b b;
#X obj 714 1437 *~;
#X obj 685 1410 osc~;
#X obj 977 1531 dac~ 1 2 3 4 5 6 7 8;
#X obj 846 1374 tabread dac_outputs, f 11;
#X obj 842 1444 *~;
#X obj 813 1417 osc~;
#X obj 978 1379 tabread dac_outputs, f 11;
#X obj 974 1449 *~;
#X obj 945 1422 osc~;
#X obj 1106 1380 tabread dac_outputs, f 11;
#X obj 1102 1450 *~;
#X obj 1073 1423 osc~;
#X obj 1239 1383 tabread dac_outputs, f 11;
#X obj 1235 1453 *~;
#X obj 1206 1426 osc~;
#X obj 1379 1385 tabread dac_outputs, f 11;
#X obj 1375 1455 *~;
#X obj 1346 1428 osc~;
#X obj 1518 1386 tabread dac_outputs, f 11;
#X obj 1514 1456 *~;
#X obj 1485 1429 osc~;
#X obj 583 1373 tabread dac_outputs, f 11;
#X msg 582 1349 0;
#X obj 579 1443 *~;
#X obj 550 1416 osc~;
#X msg 717 1343 1;
#X msg 845 1350 2;
#X msg 977 1355 3;
#X msg 1105 1356 4;
#X msg 1238 1359 5;
#X msg 1378 1361 6;
#X msg 1517 1362 7;
#X obj 1060 875 t a b;
#X text 907 1224 play vibrations;
#X obj 1313 810 float 0;
#X obj 1306 891 + 1;
#X obj 1306 916 mod 8;
#X obj 1312 785 until;
#X msg 1311 759 8;
#X obj 1359 915 tabwrite dac_outputs;
#X msg 1361 891 0;
#X obj 1314 840 t f b f;
#X text 1312 736 reset dac_outputs to 0;
#X obj 378 631 t b b;
#X obj 960 666 t b b;
#X obj 84 296 print oscparse;
#X obj 859 44 declare -path abstractions;
#X msg 582 138 1 1.9 0 1;
#X obj 69 168 notein;
#X connect 0 0 2 0;
#X connect 1 0 0 0;
#X connect 2 0 59 0;
#X connect 2 0 132 0;
#X connect 3 0 0 0;
#X connect 6 0 24 0;
#X connect 6 1 38 1;
#X connect 6 2 36 1;
#X connect 6 3 50 0;
#X connect 9 0 12 0;
#X connect 10 0 9 0;
#X connect 12 0 32 0;
#X connect 12 1 28 0;
#X connect 13 0 14 0;
#X connect 14 0 23 0;
#X connect 16 0 17 0;
#X connect 16 0 7 1;
#X connect 17 0 34 0;
#X connect 18 0 19 0;
#X connect 18 0 58 0;
#X connect 19 0 20 0;
#X connect 21 0 22 0;
#X connect 22 0 16 1;
#X connect 23 0 53 0;
#X connect 23 1 7 0;
#X connect 23 2 16 0;
#X connect 24 0 26 0;
#X connect 24 1 10 0;
#X connect 24 1 130 0;
#X connect 25 0 32 0;
#X connect 25 1 14 1;
#X connect 26 0 25 0;
#X connect 28 0 14 0;
#X connect 30 0 31 0;
#X connect 32 0 13 0;
#X connect 33 0 32 1;
#X connect 34 0 16 1;
#X connect 35 0 34 1;
#X connect 36 0 48 0;
#X connect 37 0 61 0;
#X connect 38 0 47 0;
#X connect 39 0 40 0;
#X connect 40 0 6 0;
#X connect 40 1 41 0;
#X connect 41 0 66 0;
#X connect 42 0 44 0;
#X connect 42 1 46 1;
#X connect 42 2 45 1;
#X connect 44 1 131 0;
#X connect 45 0 48 0;
#X connect 46 0 47 0;
#X connect 47 0 49 0;
#X connect 48 0 49 1;
#X connect 49 0 65 0;
#X connect 49 0 69 0;
#X connect 49 1 64 0;
#X connect 49 1 119 0;
#X connect 50 0 14 1;
#X connect 50 1 51 0;
#X connect 51 0 14 1;
#X connect 52 0 53 1;
#X connect 53 0 54 0;
#X connect 57 0 78 0;
#X connect 57 1 76 0;
#X connect 57 2 77 0;
#X connect 58 0 29 0;
#X connect 58 0 30 0;
#X connect 59 0 37 0;
#X connect 59 1 60 1;
#X connect 60 0 39 0;
#X connect 61 0 60 0;
#X connect 61 1 39 1;
#X connect 66 0 42 0;
#X connect 67 0 87 1;
#X connect 69 0 85 0;
#X connect 69 1 75 0;
#X connect 69 2 74 0;
#X connect 71 0 84 0;
#X connect 72 0 84 0;
#X connect 73 0 84 0;
#X connect 74 0 71 0;
#X connect 74 1 84 1;
#X connect 75 0 72 0;
#X connect 75 1 84 1;
#X connect 76 0 82 0;
#X connect 77 0 79 0;
#X connect 78 0 83 0;
#X connect 79 0 71 1;
#X connect 82 0 72 1;
#X connect 83 0 73 1;
#X connect 85 0 86 0;
#X connect 85 1 73 0;
#X connect 85 2 84 1;
#X connect 86 0 109 0;
#X connect 86 1 112 0;
#X connect 86 2 113 0;
#X connect 86 3 114 0;
#X connect 86 4 115 0;
#X connect 86 5 116 0;
#X connect 86 6 117 0;
#X connect 86 7 118 0;
#X connect 87 0 89 1;
#X connect 88 0 87 0;
#X connect 90 0 91 1;
#X connect 91 0 89 2;
#X connect 92 0 91 0;
#X connect 93 0 94 1;
#X connect 94 0 89 3;
#X connect 95 0 94 0;
#X connect 96 0 97 1;
#X connect 97 0 89 4;
#X connect 98 0 97 0;
#X connect 99 0 100 1;
#X connect 100 0 89 5;
#X connect 101 0 100 0;
#X connect 102 0 103 1;
#X connect 103 0 89 6;
#X connect 104 0 103 0;
#X connect 105 0 106 1;
#X connect 106 0 89 7;
#X connect 107 0 106 0;
#X connect 108 0 110 1;
#X connect 109 0 108 0;
#X connect 110 0 89 0;
#X connect 111 0 110 0;
#X connect 112 0 67 0;
#X connect 113 0 90 0;
#X connect 114 0 93 0;
#X connect 115 0 96 0;
#X connect 116 0 99 0;
#X connect 117 0 102 0;
#X connect 118 0 105 0;
#X connect 119 0 57 0;
#X connect 119 1 125 0;
#X connect 121 0 128 0;
#X connect 122 0 123 0;
#X connect 123 0 121 1;
#X connect 124 0 121 0;
#X connect 125 0 124 0;
#X connect 127 0 126 0;
#X connect 128 0 122 0;
#X connect 128 1 127 0;
#X connect 128 2 126 1;
#X connect 130 0 38 0;
#X connect 130 1 36 0;
#X connect 131 0 46 0;
#X connect 131 1 45 0;
#X connect 134 0 59 0;
